<svg width="764" height="720" viewBox="0 0 764 720" fill="none" xmlns="http://www.w3.org/2000/svg">
<circle cx="594.949" cy="682.451" r="15.5038" transform="rotate(74.014 594.949 682.451)" fill="#8EB897"/>
<circle cx="312.068" cy="216.6" r="34.3975" transform="rotate(74.014 312.068 216.6)" fill="#8EB897"/>
<circle cx="199.398" cy="82.4803" r="12.0311" transform="rotate(74.014 199.398 82.4803)" fill="#FF5964"/>
<circle cx="238.62" cy="103.292" r="19.9422" transform="rotate(74.014 238.62 103.292)" fill="#FF5964"/>
<circle cx="518.958" cy="595.089" r="20.6125" transform="rotate(74.014 518.958 595.089)" fill="#FF5964"/>
<circle cx="364.778" cy="337.819" r="15.5038" transform="rotate(74.014 364.778 337.819)" fill="#F2F5EA"/>
<circle cx="225.786" cy="23.0129" r="34.3975" transform="rotate(74.014 225.786 23.0129)" fill="#F2F5EA"/>
<circle cx="496.087" cy="518.556" r="34.3975" transform="rotate(74.014 496.087 518.556)" fill="#F2F5EA"/>
<circle cx="625.819" cy="721.602" r="27.0499" transform="rotate(74.014 625.819 721.602)" fill="#F2F5EA"/>
<circle cx="280.118" cy="281.273" r="15.5038" transform="rotate(74.014 280.118 281.273)" fill="#C4C4C4"/>
<circle cx="378.242" cy="441.116" r="15.5038" transform="rotate(74.014 378.242 441.116)" fill="#C4C4C4"/>
<circle cx="564.263" cy="585.765" r="9.24342" transform="rotate(74.014 564.263 585.765)" fill="#C4C4C4"/>
<circle cx="177.908" cy="-19.2101" r="19.3779" transform="rotate(74.014 177.908 -19.2101)" fill="#C4C4C4"/>
<circle cx="246.007" cy="163.962" r="34.3975" transform="rotate(74.014 246.007 163.962)" fill="#C4C4C4"/>
<circle cx="308.468" cy="346.809" r="44.0865" transform="rotate(74.014 308.468 346.809)" fill="#C4C4C4"/>
<circle cx="397.997" cy="387.245" r="30.844" transform="rotate(74.014 397.997 387.245)" fill="#C4C4C4"/>
<circle cx="426.344" cy="466.701" r="25.4752" transform="rotate(74.014 426.344 466.701)" fill="#C4C4C4"/>
<circle cx="599.369" cy="629.276" r="34.3975" transform="rotate(74.014 599.369 629.276)" fill="#C4C4C4"/>
<circle cx="703.66" cy="735.084" r="34.3975" transform="rotate(74.014 703.66 735.084)" fill="#C4C4C4"/>
<path d="M256.025 -640.117C192.039 -503.328 104.089 -147.67 264.176 180.644C424.262 508.958 660.973 733.393 759.318 804.571" stroke="#22546D" stroke-width="10"/>
</svg>
