<svg width="21834" height="9780" viewBox="0 0 21834 9780" fill="none" xmlns="http://www.w3.org/2000/svg">
<rect width="21833" height="9287" fill="#EAD7E1"/>
<path d="M6278.85 4692.22C4238.47 5069.86 126.168 5833.6 0 5867.51L0 9771L21833.1 9771V4349.27L18264.9 5181.61C17384.3 4869.48 15607.4 4236.75 15544.3 4202.84C15481.3 4168.93 11667.3 5167.48 9768.2 5670.99L6278.85 4692.22Z" fill="#8EB897"/>
<path d="M4175.88 6512.14C2901.04 6789.97 281.069 7379.17 0 7513.34L0 9780L21833.1 9780V6329.19L18490.3 7442.19L15699.7 6329.19C14950.2 6622.26 13429.1 7222.64 13340.7 7279.56C13230.3 7350.71 9435.89 6344.43 9245.17 6329.19C9092.59 6316.99 7588.87 6910.25 6856.08 7208.41L4175.88 6512.14Z" fill="#3D5366"/>
<path d="M3520.26 7895.62C3416.78 7883.42 1130.3 8503.81 0 8815.52L0 9771L21833 9771V8414.02L18774.7 7524.61L14903.4 8414.02L11494 7240L5793.18 8414.02C5078.66 8246.3 3623.74 7907.82 3520.26 7895.62Z" fill="#171D21"/>
</svg>
