<svg width="3069" height="1183" viewBox="0 0 3069 1183" fill="none" xmlns="http://www.w3.org/2000/svg">
<path d="M2852.42 955.746C2714.33 955.746 2602.38 844.098 2602.38 706.373C2602.38 568.648 2714.33 457 2852.42 457C2944.96 457 3025.76 507.139 3069 581.666L2852.42 706.373L3069 831.081C3025.76 905.607 2944.96 955.746 2852.42 955.746Z" fill="#FF5964"/>
<path d="M2593.2 541.145H2264.08C2217.8 541.145 2180.29 578.132 2180.29 623.759C2180.29 669.386 2217.8 706.373 2264.08 706.373H2423.43C2469.71 706.373 2507.22 743.361 2507.22 788.988C2507.22 834.615 2469.71 871.602 2423.43 871.602H2094.46" stroke="#3D5366" stroke-width="184"/>
<path d="M1585 457V955.746H2083.75C2083.75 789.504 1959.06 789.504 1959.06 789.504C1959.06 789.504 2083.75 789.504 2083.75 623.252C2083.75 457 1959.06 457 1959.06 457H1585Z" fill="#8EB897"/>
<path d="M993.731 47.6738L1307.46 591.071L993.731 1134.47L366.269 1134.47L52.5389 591.071L366.269 47.6738L993.731 47.6738Z" stroke="#22546D" stroke-width="91"/>
<path d="M1006.36 124.381L1247.11 640.687L920.36 1107.34L352.848 1057.69L112.091 541.385L438.846 74.7305L1006.36 124.381Z" stroke="#22546D" stroke-width="91"/>
<path d="M1011.19 196.656L1187.29 680.477L856.333 1074.89L349.284 985.485L173.187 501.664L504.14 107.25L1011.19 196.656Z" stroke="#FF5964" stroke-width="91"/>
<path d="M1009.88 261.067L1130.66 711.824L800.687 1041.8L349.931 921.02L229.151 470.264L559.128 140.287L1009.88 261.067Z" stroke="#FF5964" stroke-width="91"/>
<path d="M628.17 776.287L335.768 998.053L484.074 1054.14L937.68 1034.72L883.405 753.472L950.502 725.759L749.954 312.744L517.289 725.759L628.17 776.287Z" fill="#FF5964"/>
<path d="M557.791 752.205L234.572 926.012L319.951 1063.23L823.075 1151.66L795.632 752.205L884.06 752.205L749.893 313.115L448.019 691.221L557.791 752.205Z" fill="#22546D"/>
</svg>
