<svg width="228" height="31" viewBox="0 0 228 31" fill="none" xmlns="http://www.w3.org/2000/svg">
<path d="M107.923 14.3423C107.923 15.1086 107.794 15.7782 107.537 16.3511C107.279 16.9204 106.914 17.3555 106.441 17.6562C105.968 17.957 105.417 18.1074 104.787 18.1074C104.171 18.1074 103.625 17.957 103.148 17.6562C102.672 17.3519 102.302 16.9204 102.037 16.3618C101.775 15.7996 101.641 15.1497 101.634 14.4121V13.8481C101.634 13.0962 101.764 12.432 102.026 11.8555C102.287 11.279 102.656 10.8385 103.132 10.5342C103.612 10.2262 104.16 10.0723 104.776 10.0723C105.403 10.0723 105.954 10.2244 106.43 10.5288C106.91 10.8296 107.279 11.2682 107.537 11.8447C107.794 12.4176 107.923 13.0854 107.923 13.8481V14.3423ZM106.897 13.8374C106.897 12.91 106.711 12.1992 106.339 11.7051C105.966 11.2074 105.445 10.9585 104.776 10.9585C104.124 10.9585 103.61 11.2074 103.234 11.7051C102.862 12.1992 102.67 12.8867 102.66 13.7676V14.3423C102.66 15.241 102.848 15.9482 103.224 16.4639C103.603 16.9759 104.124 17.2319 104.787 17.2319C105.453 17.2319 105.968 16.9902 106.333 16.5068C106.699 16.0199 106.887 15.3234 106.897 14.4175V13.8374ZM112.338 14.8364H110.501V18H109.465V10.1797H112.054C112.935 10.1797 113.611 10.3802 114.084 10.7812C114.56 11.1823 114.798 11.766 114.798 12.5322C114.798 13.0192 114.666 13.4435 114.401 13.8052C114.139 14.1668 113.774 14.4372 113.305 14.6162L115.142 17.9355V18H114.036L112.338 14.8364ZM110.501 13.9932H112.086C112.598 13.9932 113.004 13.8607 113.305 13.5957C113.61 13.3307 113.762 12.9762 113.762 12.5322C113.762 12.0488 113.617 11.6782 113.327 11.4204C113.04 11.1626 112.625 11.0319 112.081 11.0283H110.501V13.9932Z" fill="#E5E5E5"/>
<line x1="100" y1="14.5" x2="17" y2="14.5" stroke="#E5E5E5"/>
<line x1="199" y1="14.5" x2="116" y2="14.5" stroke="#E5E5E5"/>
</svg>
