<svg width="1980" height="1200" viewBox="0 0 1980 1200" fill="none" xmlns="http://www.w3.org/2000/svg">
<g clip-path="url(#clip0)">
<rect width="1980" height="1200" fill="#171D21"/>
<path d="M1346.73 -82.4624L2056.03 1146.08L1948.97 1207.89L1239.67 -20.65L1346.73 -82.4624Z" fill="#FF5964"/>
<rect x="734.504" y="1686" width="1578.98" height="155.765" transform="rotate(-139.225 734.504 1686)" fill="#FF5964"/>
<rect x="1016.67" y="-368" width="1919.99" height="33.2393" transform="rotate(60 1016.67 -368)" fill="#FF5964"/>
<rect x="696.254" y="1416.66" width="1653.52" height="91.8633" transform="rotate(-139.495 696.254 1416.66)" fill="#22546D"/>
<path d="M722.55 348.213L849.519 128.297L1103.46 128.297L1230.42 348.213L1103.46 568.129L849.519 568.129L722.55 348.213Z" stroke="#FF5964" stroke-width="25"/>
<path d="M504.353 590.827L523.069 558.411L560.5 558.411L579.216 590.827L560.5 623.243L523.069 623.243L504.353 590.827Z" fill="#8EB897" stroke="#8EB897" stroke-width="400"/>
<path d="M504.353 590.827L523.069 558.411L560.5 558.411L579.216 590.827L560.5 623.243L523.069 623.243L504.353 590.827Z" fill="#8EB897" stroke="#8EB897" stroke-width="400"/>
<path d="M287.847 77.2321L414.816 -142.684L668.753 -142.684L795.722 77.2321L668.753 297.148L414.816 297.148L287.847 77.2321Z" stroke="#22546D" stroke-width="25"/>
<path d="M1523.73 77.2236L1650.69 -142.688L1904.62 -142.688L2031.59 77.2236L1904.62 297.135L1650.69 297.135L1523.73 77.2236Z" stroke="#8EB897" stroke-width="25"/>
<path d="M1413.75 838.307L1540.72 618.391L1794.66 618.391L1921.63 838.307L1794.66 1058.22L1540.72 1058.22L1413.75 838.307Z" fill="#22546D" stroke="#22546D" stroke-width="25"/>
<path d="M948.89 1092.17L1075.86 872.258L1329.8 872.258L1456.76 1092.17L1329.8 1312.09L1075.86 1312.09L948.89 1092.17Z" stroke="#8EB897" stroke-width="25"/>
<path d="M230.129 79.0345L298.694 -30.1469L-47 -68V623.066L124.033 778L379 334.888L230.129 79.0345Z" fill="#FF5964"/>
<rect x="-571" y="-241" width="3082" height="1632" fill="black" fill-opacity="0.5"/>
</g>
<defs>
<clipPath id="clip0">
<rect width="1980" height="1200" fill="white"/>
</clipPath>
</defs>
</svg>
