<svg width="300" height="318" viewBox="0 0 300 318" fill="none" xmlns="http://www.w3.org/2000/svg">
<rect x="82.7158" y="-45" width="134.489" height="74.9803" fill="#8EB897"/>
<rect x="75.5752" y="37.1216" width="148.77" height="29.7541" fill="#8EB897"/>
<path fill-rule="evenodd" clip-rule="evenodd" d="M135.083 74.0166H165.083V107.43L135.083 124.751V74.0166ZM135.083 136.676L165.083 119.356V140.442L135.083 157.762V136.676ZM135.083 169.688V190.774L165.083 173.454V152.367L135.083 169.688ZM135.083 223.786V202.7L165.083 185.379V206.466L135.083 223.786ZM135.083 235.712V240.738L149.838 254.263L165.083 240.738V218.391L135.083 235.712Z" fill="#8EB897"/>
<path d="M0 268.082H127.377H152.459L168.197 254.065H300V318H0V268.082Z" fill="#8EB897"/>
<path d="M74.981 246.757L125.318 259.903L74.1957 255.081L74.981 246.757Z" fill="#8EB897"/>
<path d="M63.668 216.213L112.271 242.995L68.7601 209.582L63.668 216.213Z" fill="#8EB897"/>
<path d="M104.689 210.929L122.269 247.064L112.804 208.916L104.689 210.929Z" fill="#8EB897"/>
</svg>
