<svg width="32768" height="7339" viewBox="0 0 32768 7339" fill="none" xmlns="http://www.w3.org/2000/svg">
<rect x="16383.6" width="16383.6" height="6969.02" fill="#EAD7E1"/>
<path d="M21095.3 3521.07C19564.2 3804.45 16478.3 4377.57 16383.6 4403.02V7332.22L32767.3 7332.22V3263.72L30089.7 3888.31C29428.9 3654.09 28095.5 3179.29 28048.2 3153.84C28000.9 3128.39 25138.8 3877.71 23713.7 4255.54L21095.3 3521.07Z" fill="#8EB897"/>
<path d="M19517.2 4886.76C18560.6 5095.24 16594.5 5537.38 16383.6 5638.06V7338.98L32767.3 7338.98V4749.46L30258.9 5584.67L28164.8 4749.46C27602.4 4969.39 26460.9 5419.91 26394.6 5462.63C26311.7 5516.02 23464.4 4760.9 23321.3 4749.46C23206.8 4740.31 22078.4 5185.5 21528.5 5409.23L19517.2 4886.76Z" fill="#3D5366"/>
<path d="M19025.3 5924.93C18947.6 5915.77 17231.8 6381.31 16383.6 6615.23V7332.22L32767.2 7332.22V6313.93L30472.3 5646.52L27567.2 6313.93L25008.8 5432.94L20730.9 6313.93C20194.7 6188.08 19102.9 5934.08 19025.3 5924.93Z" fill="#171D21"/>
<rect width="21833" height="9287" transform="matrix(-0.750406 0 0 0.750406 16383.7 0)" fill="#EAD7E1"/>
<path d="M11672 3521.07C13203.1 3804.45 16289 4377.57 16383.7 4403.02V7332.22L0.00146564 7332.22V3263.72L2677.6 3888.31C3338.37 3654.09 4671.75 3179.29 4719.09 3153.84C4766.43 3128.39 7628.45 3877.71 9053.55 4255.54L11672 3521.07Z" fill="#8EB897"/>
<path d="M13250.1 4886.76C14206.7 5095.24 16172.7 5537.38 16383.7 5638.06V7338.98L0.00146564 7338.98V4749.46L2508.4 5584.67L4602.49 4749.46C5164.94 4969.39 6306.39 5419.91 6372.68 5462.63C6455.54 5516.02 9302.91 4760.9 9446.03 4749.46C9560.53 4740.31 10688.9 5185.5 11238.8 5409.23L13250.1 4886.76Z" fill="#3D5366"/>
<path d="M13742 5924.93C13819.7 5915.77 15535.5 6381.31 16383.7 6615.23V7332.22L0.0410379 7332.22V6313.93L2295 5646.52L5200.09 6313.93L7758.52 5432.94L12036.4 6313.93C12572.6 6188.08 13664.4 5934.08 13742 5924.93Z" fill="#171D21"/>
</svg>
