<svg width="9339" height="5018" viewBox="0 0 9339 5018" fill="none" xmlns="http://www.w3.org/2000/svg">
<path d="M1466.53 646.56C219.483 1144.62 -2293.89 2151.93 -2371 2196.65L-2371 7345L10973 7345L10973 194.238L8792.17 1292.01C8254 880.345 7168 45.8348 7129.45 1.11078C7090.89 -43.6133 4759.86 1273.37 3599.16 1937.46L1466.53 646.56Z" fill="#8EB897"/>
<path d="M-130.863 2310.14C-895.958 2587.97 -2468.32 3177.17 -2637 3311.34L-2637 5578L10466 5578V2127.19L8459.89 3240.19L6785.11 2127.19C6335.29 2420.26 5422.4 3020.64 5369.38 3077.56C5303.12 3148.71 3025.91 2142.43 2911.44 2127.19C2819.87 2114.99 1917.42 2708.25 1477.64 3006.41L-130.863 2310.14Z" fill="#3D5366"/>
<path d="M-817.81 3693.62C-885.28 3681.42 -2376.05 4301.81 -3113 4613.52V5569L11122 5569V4212.02L9128.02 3322.61L6603.91 4212.02L4381.01 3038L664.124 4212.02C198.259 4044.3 -750.339 3705.82 -817.81 3693.62Z" fill="#171D21"/>
</svg>
