<svg width="678" height="684" viewBox="0 0 678 684" fill="none" xmlns="http://www.w3.org/2000/svg">
<path d="M325.66 325.116L622.575 194.673" stroke="#FF5964" stroke-width="20"/>
<path d="M620.09 193.431L252.364 76.6526" stroke="#3D5366" stroke-width="20"/>
<path d="M621.332 193.431L479.708 25.7174" stroke="#3D5366" stroke-width="20"/>
<path d="M324.418 322.632L61.0466 214.55" stroke="#FF5964" stroke-width="20"/>
<path d="M324.418 321.389L579.094 435.683" stroke="#FF5964" stroke-width="20"/>
<path d="M328.145 326.359L197.702 537.553" stroke="#FF5964" stroke-width="20"/>
<path d="M197.702 533.826L408.896 659.3" stroke="#F2F5EA" stroke-width="20"/>
<path d="M200.186 530.099L13.8384 569.853" stroke="#F2F5EA" stroke-width="20"/>
<path d="M61.0466 213.308L8.86914 41.8676" stroke="#FF5964" stroke-width="20"/>
<circle cx="326.204" cy="324" r="98.6361" fill="#FF5964"/>
<circle cx="620.682" cy="194.407" r="56.4656" fill="#3D5366"/>
<circle cx="8.8528" cy="40.9641" r="35.9671" fill="#8EB897"/>
<circle cx="253.299" cy="76.9312" r="50.7475" fill="#3D5366"/>
<circle cx="478.089" cy="26.1837" r="25.3738" fill="#EAD7E1"/>
<circle cx="577.619" cy="433.492" r="43.0638" fill="#8EB897"/>
<circle cx="407.845" cy="669" r="81.6413" fill="#EAD7E1"/>
<circle cx="199.862" cy="529.993" r="53.4367" fill="#F2F5EA"/>
<circle cx="60.8721" cy="213.548" r="27.3184" fill="#FF5964"/>
<circle cx="5.35062" cy="569.462" r="39.4693" fill="#3D5366"/>
</svg>
