<svg width="1280" height="429" viewBox="0 0 1280 429" fill="none" xmlns="http://www.w3.org/2000/svg">
<circle cx="338.861" cy="273.144" r="34.3975" transform="rotate(-10.3519 338.861 273.144)" fill="#8EB897"/>
<circle cx="703.753" cy="196.068" r="34.3975" transform="rotate(-10.3519 703.753 196.068)" fill="#8EB897"/>
<circle cx="277.5" cy="308.896" r="15.5038" transform="rotate(-10.3519 277.5 308.896)" fill="#FF5964"/>
<circle cx="559.22" cy="295.026" r="12.0311" transform="rotate(-10.3519 559.22 295.026)" fill="#FF5964"/>
<circle cx="130.284" cy="311.244" r="34.3975" transform="rotate(-10.3519 130.284 311.244)" fill="#FF5964"/>
<circle cx="583.781" cy="258.037" r="19.9422" transform="rotate(-10.3519 583.781 258.037)" fill="#FF5964"/>
<circle cx="1100.73" cy="27.3348" r="20.6125" transform="rotate(-10.3519 1100.73 27.3348)" fill="#FF5964"/>
<circle cx="54.3407" cy="290.15" r="8.64691" transform="rotate(-10.3519 54.3407 290.15)" fill="#F2F5EA"/>
<circle cx="396.646" cy="271.949" r="7.24111" transform="rotate(-10.3519 396.646 271.949)" fill="#F2F5EA"/>
<circle cx="829.562" cy="155.514" r="15.5038" transform="rotate(-10.3519 829.562 155.514)" fill="#F2F5EA"/>
<circle cx="502.63" cy="262.928" r="34.3975" transform="rotate(-10.3519 502.63 262.928)" fill="#F2F5EA"/>
<circle cx="1022.32" cy="42.5824" r="34.3975" transform="rotate(-10.3519 1022.32 42.5824)" fill="#F2F5EA"/>
<circle cx="28.9866" cy="210.982" r="47.2341" transform="rotate(-10.3519 28.9866 210.982)" fill="#EAD7E1"/>
<circle cx="108.796" cy="228.658" r="15.5038" transform="rotate(-10.3519 108.796 228.658)" fill="#EAD7E1"/>
<circle cx="764.977" cy="234.212" r="15.5038" transform="rotate(-10.3519 764.977 234.212)" fill="#EAD7E1"/>
<circle cx="933.681" cy="152.255" r="15.5038" transform="rotate(-10.3519 933.681 152.255)" fill="#EAD7E1"/>
<circle cx="216.209" cy="285.126" r="39.4025" transform="rotate(-10.3519 216.209 285.126)" fill="#EAD7E1"/>
<circle cx="455.911" cy="306.429" r="19.3779" transform="rotate(-10.3519 455.911 306.429)" fill="#EAD7E1"/>
<circle cx="644.884" cy="256.641" r="34.3975" transform="rotate(-10.3519 644.884 256.641)" fill="#EAD7E1"/>
<circle cx="832.979" cy="212.433" r="44.0865" transform="rotate(-10.3519 832.979 212.433)" fill="#EAD7E1"/>
<circle cx="882.009" cy="127.307" r="30.844" transform="rotate(-10.3519 882.009 127.307)" fill="#EAD7E1"/>
<circle cx="963.865" cy="106.897" r="25.4752" transform="rotate(-10.3519 963.865 106.897)" fill="#EAD7E1"/>
<path d="M-154.328 167.732C-24.4806 244.838 320.825 367.28 663.269 240.199C1005.71 113.118 1252.3 -100.416 1332.79 -191.297" stroke="#22546D" stroke-width="10"/>
</svg>
