<svg width="1585" height="656" viewBox="0 0 1585 656" fill="none" xmlns="http://www.w3.org/2000/svg">
<path d="M1389.2 377.628C1284.92 377.628 1200.39 293.093 1200.39 188.814C1200.39 84.5348 1284.92 0 1389.2 0C1459.08 0 1520.1 37.9633 1552.75 94.3911L1389.2 188.814L1552.75 283.236C1520.1 339.664 1459.08 377.628 1389.2 377.628Z" fill="#FF5964"/>
<path fill-rule="evenodd" clip-rule="evenodd" d="M1071 126.197H1192.83V0.611542H943.629C874.605 0.611542 817.395 56.1093 817.395 126.109C817.395 193.827 870.936 247.972 936.918 251.431H815.198V377.016H1064.28C1133.31 377.016 1190.52 321.518 1190.52 251.519C1190.52 183.801 1136.98 129.655 1071 126.197Z" fill="#3D5366"/>
<path d="M430 0V377.645H807.645C807.645 251.768 713.234 251.768 713.234 251.768C713.234 251.768 807.645 251.768 807.645 125.884C807.645 0 713.234 0 713.234 0H430Z" fill="#8EB897"/>
<path d="M0 424H1584.09V634.882H0V424Z" fill="#FF5964"/>
<path d="M73.96 606.325C99.85 606.325 121.53 589.696 121.53 566.543C121.53 526.339 52.4902 522.761 52.4902 501.291C52.4902 492.661 60.6993 486.978 73.3285 486.978C89.7466 486.978 104.27 502.975 105.954 504.659L124.267 486.557C122.162 484.242 99.85 461.72 73.539 461.72C47.649 461.93 26.1792 478.348 26.1792 501.712C26.1792 541.705 95.0088 545.494 95.0088 566.753C95.0088 575.383 86.7998 581.066 74.1705 581.066C57.5419 581.066 43.0183 564.859 41.7553 563.385L23.4429 581.487C25.3373 583.803 47.8595 606.325 73.96 606.325Z" fill="#171D21"/>
<path d="M207.286 499.397V557.281C207.286 571.384 198.025 581.487 185.185 581.487C172.345 581.487 163.294 571.594 163.294 557.492V499.397H135.72V558.123C135.72 585.487 153.191 606.325 179.081 606.325C189.605 606.325 199.709 601.694 207.286 594.117V604.641H234.229V499.397H207.286Z" fill="#171D21"/>
<path d="M382.909 497.713C365.649 497.713 352.809 504.449 345.231 514.763C337.654 504.238 325.866 497.713 311.343 497.713C300.818 497.713 290.504 502.344 282.927 509.921V499.397H255.984V604.641H282.927V546.757C282.927 532.654 292.188 522.551 305.028 522.551C317.868 522.551 327.129 532.444 327.129 546.546V604.641H354.493V546.757C354.493 532.654 363.754 522.551 376.594 522.551C389.434 522.551 398.485 532.444 398.485 546.546V604.641H426.059V545.915C426.059 518.551 408.588 497.713 382.909 497.713Z" fill="#171D21"/>
<path d="M573.869 497.713C556.609 497.713 543.769 504.449 536.192 514.763C528.614 504.238 516.827 497.713 502.303 497.713C491.779 497.713 481.465 502.344 473.887 509.921V499.397H446.945V604.641H473.887V546.757C473.887 532.654 483.149 522.551 495.988 522.551C508.828 522.551 518.09 532.444 518.09 546.546V604.641H545.453V546.757C545.453 532.654 554.715 522.551 567.554 522.551C580.394 522.551 589.445 532.444 589.445 546.546V604.641H617.019V545.915C617.019 518.551 599.549 497.713 573.869 497.713Z" fill="#171D21"/>
<path d="M718.576 562.964C717.103 567.385 704.895 580.645 686.793 580.645C675.847 580.645 667.217 574.12 663.428 565.49L740.888 551.388C741.099 550.546 740.888 549.704 740.888 548.651C739.836 519.604 716.05 496.45 686.793 496.45C656.693 496.45 632.487 520.656 632.487 550.756C632.487 557.492 633.75 564.227 636.275 570.331C644.484 591.591 665.744 605.062 686.793 605.062C723.418 605.062 739.204 574.962 741.098 570.121L718.576 562.964ZM660.271 541.705C662.586 530.339 672.269 521.288 683.425 520.446C694.37 519.393 705.315 525.918 710.367 536.022L659.64 545.073L660.271 541.705Z" fill="#171D21"/>
<path d="M811.252 497.713C800.727 497.713 790.414 502.344 782.836 509.921V499.397H755.893V604.641H782.836V546.757C782.836 532.654 792.097 522.551 804.937 522.551C808.516 522.551 813.567 525.076 818.408 528.865L825.776 500.66C821.355 498.765 816.514 497.713 811.252 497.713Z" fill="#171D21"/>
<path d="M952.539 606.325C979.481 606.325 999.477 594.117 1011.05 575.383L986.638 560.018C979.481 572.647 966.641 581.066 952.539 581.066C927.912 581.066 911.914 561.491 911.914 534.127C911.914 506.554 927.912 486.978 952.539 486.978C966.431 486.978 979.271 495.398 986.638 508.237L1011.05 492.661C999.477 473.928 979.481 461.72 952.539 461.72C908.757 461.72 882.657 494.135 882.657 534.127C882.657 573.91 908.757 606.325 952.539 606.325Z" fill="#171D21"/>
<path d="M1100.85 499.397V506.343C1092.43 500.87 1082.33 497.713 1071.59 497.713C1041.49 497.713 1017.29 522.13 1017.29 552.019C1017.29 581.908 1041.49 606.325 1071.59 606.325C1082.33 606.325 1092.43 603.168 1100.85 597.695V604.641H1127.79V499.397H1100.85ZM1072.43 581.066C1056.65 581.066 1045.07 568.858 1045.07 552.019C1045.07 535.18 1056.65 522.972 1072.43 522.972C1088.22 522.972 1099.8 535.18 1099.8 552.019C1099.8 568.858 1088.22 581.066 1072.43 581.066Z" fill="#171D21"/>
<path d="M1276.46 497.713C1259.2 497.713 1246.36 504.449 1238.78 514.763C1231.2 504.238 1219.41 497.713 1204.89 497.713C1194.36 497.713 1184.05 502.344 1176.47 509.921V499.397H1149.53V604.641H1176.47V546.757C1176.47 532.654 1185.73 522.551 1198.57 522.551C1211.41 522.551 1220.68 532.444 1220.68 546.546V604.641H1248.04V546.757C1248.04 532.654 1257.3 522.551 1270.14 522.551C1282.98 522.551 1292.03 532.444 1292.03 546.546V604.641H1319.61V545.915C1319.61 518.551 1302.13 497.713 1276.46 497.713Z" fill="#171D21"/>
<path d="M1397.72 497.713C1386.78 497.713 1376.68 500.87 1368.26 506.343V499.397H1341.31V656H1368.26V597.484C1376.68 603.168 1386.78 606.325 1397.72 606.325C1427.82 606.325 1452.03 581.908 1452.03 552.019C1452.03 521.919 1427.82 497.713 1397.72 497.713ZM1396.88 580.856C1380.89 580.856 1369.52 568.858 1369.52 552.019C1369.52 534.969 1380.89 522.972 1396.88 522.972C1412.67 522.972 1424.25 534.969 1424.25 552.019C1424.25 568.858 1412.67 580.856 1396.88 580.856Z" fill="#171D21"/>
<path d="M1508.81 606.325C1536.38 606.325 1551.54 593.064 1551.54 574.331C1551.54 539.39 1488.39 540.863 1488.39 529.707C1488.39 524.445 1495.13 521.077 1505.23 521.077C1522.91 521.077 1535.96 533.917 1535.96 533.917L1553.01 518.551C1553.01 518.551 1535.75 497.713 1505.86 497.713C1478.29 497.713 1463.34 510.974 1463.34 529.707C1463.34 564.648 1526.28 563.175 1526.28 574.331C1526.28 579.593 1519.75 582.961 1509.44 582.961C1491.76 582.961 1478.92 570.121 1478.92 570.121L1461.87 585.487C1461.87 585.487 1479.13 606.325 1508.81 606.325Z" fill="#171D21"/>
<path d="M89.9529 206.9L121.03 280.018L165.345 314.256L252.452 306.516L295.256 236.54L266.527 127.649L252.519 149.418L179.478 0.0667397L147.537 127.598L128.104 105.813L89.9529 206.9Z" fill="#FF5964"/>
<path d="M147.494 228.7L164.576 294.035L195.676 314.269L227.57 294.062L240.813 243.517L186.404 172.722L147.494 228.7Z" fill="#F2F5EA"/>
<path d="M89.9361 246.563L23.0347 289.309L54.1202 342.984L156.778 343.028L186.349 300.266L89.9361 246.563Z" fill="#171D21"/>
<path d="M148.412 264.475L201.898 311.412L176.987 370.256L94.8603 370.221L71.2379 323.298L148.412 264.475Z" fill="#171D21"/>
<path d="M249.157 269.185L304.556 311.983L278.758 365.634L193.699 365.597L169.23 322.813L249.157 269.185Z" fill="#171D21"/>
<path d="M355.774 295.733L309.249 262.671L260.517 288.172L269.117 347.953L312.514 359.276L355.774 295.733Z" fill="#171D21"/>
</svg>
